<svg xmlns="http://www.w3.org/2000/svg"><g id="tool_closepath"><svg xmlns="http://www.w3.org/2000/svg" xmlns:xlink="http://www.w3.org/1999/xlink" viewBox="0 0 300 300"><g><title>Layer 1</title><path fill="#ffc8c8" stroke="#000" stroke-width="15" d="m121.5,40l-84,106l27,115l166,2l29,-111"/><line x1="240" x2="169.5" y1="136" y2="74" fill="none" stroke="#A00" stroke-width="25"/><path fill="#A00" stroke="none" d="m158,65l31,74l-3,-50l51,-3z"/><g fill="#0ff" stroke="#00f" stroke-width="15"><circle cx="123" cy="41" r="30"/><circle cx="40" cy="146" r="30"/><circle cx="69" cy="260" r="30"/><circle cx="228" cy="260" r="30"/><circle cx="260" cy="148" r="30"/></g></g></svg></g><g id="tool_openpath"><svg xmlns="http://www.w3.org/2000/svg" xmlns:xlink="http://www.w3.org/1999/xlink" viewBox="0 0 300 300"><g><title>Layer 1</title><path fill="#ffc8c8" stroke="#000" stroke-width="15" d="m123.5,38l-84,106l27,115l166,2l29,-111"/><line x1="276.5" x2="108.5" y1="153" y2="24" fill="none" stroke="#000" stroke-width="10"/><g fill="#0ff" stroke="#00f" stroke-width="15"><circle cx="123" cy="41" r="30"/><circle cx="40" cy="146" r="30"/><circle cx="69" cy="260" r="30"/><circle cx="228" cy="260" r="30"/><circle cx="260" cy="148" r="30"/></g><g fill="none" stroke="#A00" stroke-width="15"><line x1="168" x2="210" y1="24" y2="150"/><line x1="210" x2="168" y1="24" y2="150"/></g></g></svg></g></svg>